<svg width="20" height="20" viewBox="0 0 20 20" fill="none" xmlns="http://www.w3.org/2000/svg">
<path d="M14.3399 -0.000183105H5.66988C2.27988 -0.000183105 -0.00012207 2.37982 -0.00012207 5.91982V14.0898C-0.00012207 17.6198 2.27988 19.9998 5.66988 19.9998H14.3399C17.7299 19.9998 19.9999 17.6198 19.9999 14.0898V5.91982C19.9999 2.37982 17.7299 -0.000183105 14.3399 -0.000183105Z" fill="#5E6272"/>
<path d="M13.0156 11.7703L11.2366 9.99232L13.0146 8.21432C13.3566 7.87332 13.3566 7.31832 13.0146 6.97732C12.6726 6.63332 12.1196 6.63432 11.7776 6.97632L9.99858 8.75432L8.21958 6.97432C7.87758 6.63232 7.32358 6.63432 6.98158 6.97432C6.64058 7.31632 6.64058 7.87132 6.98158 8.21232L8.76158 9.99232L6.98558 11.7673C6.64358 12.1093 6.64358 12.6643 6.98558 13.0043C7.15658 13.1763 7.37958 13.2613 7.60358 13.2613C7.82858 13.2613 8.05158 13.1763 8.22258 13.0053L9.99858 11.2293L11.7786 13.0083C11.9496 13.1793 12.1726 13.2643 12.3966 13.2643C12.6206 13.2643 12.8446 13.1783 13.0156 13.0083C13.3576 12.6663 13.3576 12.1123 13.0156 11.7703Z" fill="white"/>
</svg>
