<svg width="16" height="16" viewBox="0 0 16 16" fill="none" xmlns="http://www.w3.org/2000/svg">
<path fill-rule="evenodd" clip-rule="evenodd" d="M13.4943 4.94762C14.1686 4.27331 14.1686 3.18004 13.4943 2.50573C12.82 1.83142 11.7267 1.83142 11.0524 2.50573L7.99988 5.55829L4.94759 2.50597C4.27329 1.83166 3.18003 1.83166 2.50573 2.50597C1.83142 3.18028 1.83142 4.27355 2.50573 4.94786L5.55802 8.00018L2.50589 11.0523C1.83159 11.7266 1.83159 12.8199 2.50589 13.4942C3.18019 14.1685 4.27345 14.1685 4.94775 13.4942L7.99988 10.4421L11.0522 13.4945C11.7265 14.1688 12.8198 14.1688 13.4941 13.4945C14.1684 12.8202 14.1684 11.7269 13.4941 11.0526L10.4417 8.00018L13.4943 4.94762Z" fill="#E44F4F"/>
</svg>
