<svg width="142" height="188" viewBox="0 0 142 188" fill="none" xmlns="http://www.w3.org/2000/svg">
<path d="M2.52841 181H8.67898V168.983H21.1648V181H27.3011V151.909H21.1648V163.912H8.67898V151.909H2.52841V181ZM38.4801 181.412C41.7045 181.412 43.7926 180.006 44.858 177.974H45.0284V181H50.767V166.284C50.767 161.085 46.3636 158.898 41.5057 158.898C36.2784 158.898 32.8409 161.398 32.0028 165.375L37.5994 165.83C38.0114 164.381 39.304 163.315 41.4773 163.315C43.5369 163.315 44.7159 164.352 44.7159 166.142V166.227C44.7159 167.634 43.2244 167.818 39.4318 168.188C35.1136 168.585 31.2358 170.034 31.2358 174.906C31.2358 179.224 34.3182 181.412 38.4801 181.412ZM40.2131 177.236C38.3523 177.236 37.017 176.369 37.017 174.707C37.017 173.003 38.4233 172.165 40.554 171.866C41.875 171.682 44.0341 171.369 44.7585 170.886V173.202C44.7585 175.489 42.8693 177.236 40.2131 177.236ZM55.5753 181H61.5412V177.506H61.8111C62.6491 179.324 64.4815 181.355 68.0043 181.355C72.9759 181.355 76.8537 177.42 76.8537 170.119C76.8537 162.619 72.8054 158.898 68.0185 158.898C64.3679 158.898 62.6207 161.071 61.8111 162.847H61.6264V151.909H55.5753V181ZM61.4986 170.091C61.4986 166.199 63.1463 163.713 66.0866 163.713C69.0838 163.713 70.6747 166.312 70.6747 170.091C70.6747 173.898 69.0554 176.54 66.0866 176.54C63.1747 176.54 61.4986 173.983 61.4986 170.091ZM140.309 159.182H136.204V153.955H130.153V159.182H127.17V163.727H130.153V175.091C130.124 179.366 133.036 181.483 137.425 181.298C138.988 181.241 140.096 180.929 140.707 180.73L139.755 176.227C139.457 176.284 138.817 176.426 138.249 176.426C137.042 176.426 136.204 175.972 136.204 174.295V163.727H140.309V159.182Z" fill="white"/>
<path d="M90.8345 181.426C96.2322 181.426 99.8686 178.798 100.721 174.75L95.1243 174.381C94.5135 176.043 92.951 176.909 90.9339 176.909C87.9084 176.909 85.9908 174.906 85.9908 171.653V171.639H100.849V169.977C100.849 162.562 96.3601 158.898 90.593 158.898C84.1726 158.898 80.0107 163.457 80.0107 170.19C80.0107 177.108 84.1158 181.426 90.8345 181.426ZM85.9908 167.889C86.1186 165.403 88.0078 163.415 90.6925 163.415C93.3203 163.415 95.1385 165.29 95.1527 167.889H85.9908Z" fill="url(#paint0_linear_330_1193)"/>
<path d="M114.741 181.426C120.138 181.426 123.775 178.798 124.627 174.75L119.031 174.381C118.42 176.043 116.857 176.909 114.84 176.909C111.815 176.909 109.897 174.906 109.897 171.653V171.639H124.755V169.977C124.755 162.562 120.266 158.898 114.499 158.898C108.079 158.898 103.917 163.457 103.917 170.19C103.917 177.108 108.022 181.426 114.741 181.426ZM109.897 167.889C110.025 165.403 111.914 163.415 114.599 163.415C117.227 163.415 119.045 165.29 119.059 167.889H109.897Z" fill="url(#paint1_linear_330_1193)"/>
<rect x="7" width="128" height="128" rx="30" fill="#6C5DD3"/>
<g clip-path="url(#clip0_330_1193)">
<path fill-rule="evenodd" clip-rule="evenodd" d="M41.9881 46.6913V69.613H48.1209H54.2537V58.4317V47.2503H65.2393C77.273 47.2503 80.9571 48.7084 85.9303 55.4384C89.3134 60.0161 89.1473 68.9299 85.5858 73.9369C82.4235 78.3815 75.4376 81.8533 69.5858 81.8879L65.4043 81.9125V87.6329V93.3544L72.3734 92.8826C80.6472 92.3224 86.547 89.7048 91.8491 84.2394C97.3853 78.5324 99.1204 74.5597 99.7147 66.2251C100.366 57.1067 97.3062 49.1366 90.9425 43.3715C84.3414 37.3917 79.6916 35.8587 66.2406 35.227L54.2537 34.6635V29.0817V23.5L67.9132 23.9886C80.0885 24.4236 82.2975 24.825 88.2385 27.6796C119.484 42.6906 119.323 85.6538 87.9631 101.105C83.466 103.32 80.5903 103.763 68.4707 104.102L54.2537 104.5V93.2057V81.9125H48.1209H41.9881V93.0939V104.5H36.4128H30.8375V64.0224V23.5H36.4128H41.9881V46.6913ZM65.4043 64.0224V69.613H69.6415C74.6704 69.613 76.5549 68.0387 76.5549 63.8378C76.5549 60.2721 73.9223 58.4317 68.8231 58.4317C65.4645 58.4317 65.4043 58.529 65.4043 64.0224Z" fill="white"/>
</g>
<defs>
<linearGradient id="paint0_linear_330_1193" x1="142" y1="144" x2="125.256" y2="216.807" gradientUnits="userSpaceOnUse">
<stop stop-color="#8E96FF"/>
<stop offset="1" stop-color="#6C5DD3"/>
</linearGradient>
<linearGradient id="paint1_linear_330_1193" x1="71" y1="144" x2="71" y2="188" gradientUnits="userSpaceOnUse">
<stop stop-color="#E2BDFF"/>
<stop offset="1" stop-color="#DBB0FD"/>
</linearGradient>
<clipPath id="clip0_330_1193">
<rect width="108" height="108" fill="white" transform="translate(17 10)"/>
</clipPath>
</defs>
</svg>
